<svg data-v-fde0c5aa="" xmlns="http://www.w3.org/2000/svg" viewBox="0 0 300 300" class="iconLeft"><!----><defs data-v-fde0c5aa=""><!----></defs><rect data-v-fde0c5aa="" fill="transparent" x="0" y="0" width="300px" height="300px" class="logo-background-square"></rect><defs data-v-fde0c5aa=""><!----></defs><g data-v-fde0c5aa="" id="688514a8-2450-4974-9bff-db744dd83f88" fill="#000000" transform="matrix(4.724409339817854,0,0,4.724409339817854,124.55118133260764,107.92913383770149)"><path d="M0.73 13.80L0.56 13.33L0.88 13.24L0.88 13.24Q1.41 13.09 1.60 12.84L1.60 12.84L1.60 12.84Q1.78 12.59 1.78 11.94L1.78 11.94L1.78 5.61L1.78 5.61Q1.78 4.97 1.60 4.72L1.60 4.72L1.60 4.72Q1.41 4.47 0.88 4.31L0.88 4.31L0.56 4.23L0.73 3.75L3.79 3.75L3.98 3.98L3.79 4.23L3.79 4.23Q3.44 4.69 3.30 5.21L3.30 5.21L3.30 5.21Q3.16 5.73 3.16 6.57L3.16 6.57L3.16 12.04L3.16 12.04Q3.16 12.64 3.33 12.88L3.33 12.88L3.33 12.88Q3.50 13.12 4.02 13.27L4.02 13.27L4.31 13.36L4.16 13.80L0.73 13.80ZM7.80 12.80L7.80 12.80Q7.92 13.01 8.04 13.12L8.04 13.12L8.04 13.12Q8.16 13.23 8.33 13.23L8.33 13.23L8.33 13.23Q8.60 13.23 8.88 13.03L8.88 13.03L9.11 13.44L9.11 13.44Q8.54 14 7.83 14L7.83 14L7.83 14Q7.20 14 6.76 13.66L6.76 13.66L6.76 13.66Q6.33 13.33 5.95 12.64L5.95 12.64L4.28 9.59L4.28 9.59Q4.13 9.32 3.99 9.21L3.99 9.21L3.99 9.21Q3.85 9.09 3.57 8.96L3.57 8.96L3.57 8.96Q3.50 8.92 3.50 8.81L3.50 8.81L3.50 8.81Q3.50 8.68 3.56 8.57L3.56 8.57L3.56 8.57Q3.63 8.47 3.78 8.47L3.78 8.47L3.78 8.47Q4.00 8.47 4.12 8.48L4.12 8.48L6.02 5.64L6.02 5.64Q6.20 5.36 6.26 5.20L6.26 5.20L6.26 5.20Q6.31 5.04 6.31 4.86L6.31 4.86L6.31 4.86Q6.31 4.63 6.13 4.23L6.13 4.23L6.01 3.98L6.27 3.75L8.81 3.75L8.97 4.23L8.65 4.31L8.65 4.31Q8.30 4.41 8.05 4.57L8.05 4.57L8.05 4.57Q7.80 4.73 7.56 5.07L7.56 5.07L5.04 8.71L5.04 8.71Q5.64 8.99 6.01 9.62L6.01 9.62L7.80 12.80ZM14.97 12.52L14.97 12.52Q14.39 13.33 13.79 13.66L13.79 13.66L13.79 13.66Q13.19 14 12.49 14L12.49 14L12.49 14Q11.82 14 11.24 13.62L11.24 13.62L11.24 13.62Q10.67 13.23 10.33 12.46L10.33 12.46L10.33 12.46Q9.98 11.69 9.98 10.60L9.98 10.60L9.98 10.60Q9.98 9.39 10.42 8.50L10.42 8.50L10.42 8.50Q10.86 7.62 11.68 7.14L11.68 7.14L11.68 7.14Q12.50 6.66 13.61 6.66L13.61 6.66L13.61 6.66Q14.15 6.66 15.15 6.85L15.15 6.85L15.15 6.85Q15.99 6.99 16.41 7.01L16.41 7.01L16.56 7.20L16.39 7.45L16.39 7.45Q16.30 7.59 16.25 7.71L16.25 7.71L16.25 7.71Q16.21 7.83 16.21 7.99L16.21 7.99L16.21 12.57L16.21 12.57Q16.21 13.01 16.63 13.01L16.63 13.01L16.63 13.01Q16.98 13.01 17.33 12.75L17.33 12.75L17.60 13.12L17.60 13.12Q17.23 13.52 16.81 13.76L16.81 13.76L16.81 13.76Q16.39 14 16.04 14L16.04 14L16.04 14Q15.47 14 15.22 13.65L15.22 13.65L15.22 13.65Q14.97 13.30 14.97 12.52L14.97 12.52ZM11.45 10.33L11.45 10.33Q11.45 11.66 11.91 12.29L11.91 12.29L11.91 12.29Q12.36 12.92 13.05 12.92L13.05 12.92L13.05 12.92Q13.61 12.92 14.10 12.61L14.10 12.61L14.10 12.61Q14.59 12.29 14.97 11.65L14.97 11.65L14.97 7.87L14.97 7.87Q14.32 7.43 13.59 7.43L13.59 7.43L13.59 7.43Q12.57 7.43 12.01 8.20L12.01 8.20L12.01 8.20Q11.45 8.96 11.45 10.33L11.45 10.33ZM19.99 12.99L22.19 12.99L22.19 12.99Q22.72 12.99 22.94 12.87L22.94 12.87L22.94 12.87Q23.16 12.75 23.24 12.40L23.24 12.40L23.41 11.66L23.84 11.82L23.84 13.97L23.67 14.14L23.67 14.14Q23.38 13.94 23.02 13.87L23.02 13.87L23.02 13.87Q22.67 13.80 22.01 13.80L22.01 13.80L18.42 13.80L18.27 13.37L22.20 7.66L20.10 7.66L20.10 7.66Q19.57 7.66 19.36 7.78L19.36 7.78L19.36 7.78Q19.14 7.90 19.05 8.25L19.05 8.25L18.89 8.99L18.45 8.83L18.45 6.68L18.62 6.51L18.62 6.51Q18.91 6.71 19.27 6.78L19.27 6.78L19.27 6.78Q19.63 6.85 20.29 6.85L20.29 6.85L23.77 6.85L23.77 6.85Q24.05 7.08 24.05 7.45L24.05 7.45L23.67 7.67L19.99 12.99ZM25.80 4.59L25.80 4.59Q25.80 4.33 26.10 4.00L26.10 4.00L26.10 4.00Q26.40 3.67 26.66 3.67L26.66 3.67L26.66 3.67Q26.92 3.67 27.23 3.99L27.23 3.99L27.23 3.99Q27.54 4.31 27.54 4.59L27.54 4.59L27.54 4.59Q27.54 4.86 27.23 5.18L27.23 5.18L27.23 5.18Q26.92 5.50 26.66 5.50L26.66 5.50L26.66 5.50Q26.42 5.50 26.11 5.18L26.11 5.18L26.11 5.18Q25.80 4.86 25.80 4.59L25.80 4.59ZM27.29 12.57L27.29 12.57Q27.29 13.05 27.71 13.05L27.71 13.05L27.71 13.05Q28.06 13.05 28.41 12.75L28.41 12.75L28.67 13.12L28.67 13.12Q28.31 13.52 27.89 13.76L27.89 13.76L27.89 13.76Q27.47 14 27.10 14L27.10 14L27.10 14Q26.53 14 26.28 13.65L26.28 13.65L26.28 13.65Q26.03 13.30 26.03 12.52L26.03 12.52L26.03 8.18L26.03 8.18Q26.03 8.01 25.96 7.94L25.96 7.94L25.96 7.94Q25.90 7.87 25.75 7.87L25.75 7.87L25.13 7.87L25.00 7.50L25.00 7.50Q25.41 7.14 25.93 6.90L25.93 6.90L25.93 6.90Q26.45 6.66 26.85 6.66L26.85 6.66L26.85 6.66Q27.05 6.66 27.17 6.79L27.17 6.79L27.17 6.79Q27.30 6.92 27.30 7.11L27.30 7.11L27.29 12.57Z"></path></g><defs data-v-fde0c5aa=""><linearGradient data-v-fde0c5aa="" gradientTransform="rotate(25)" id="0418cad5-637a-42cb-a953-aefe3e475703" x1="0%" y1="0%" x2="100%" y2="0%"><stop data-v-fde0c5aa="" offset="0%" stop-color="#0076DD" stop-opacity="1"></stop><stop data-v-fde0c5aa="" offset="100%" stop-color="#E600E9" stop-opacity="1"></stop></linearGradient></defs><g data-v-fde0c5aa="" id="a3b05244-149a-431c-9bd6-ba9078c2c282" stroke="none" fill="url(#0418cad5-637a-42cb-a953-aefe3e475703)" transform="matrix(2.318651580442797,0,0,2.318651580442797,40,112.90157471291525)"><path d="M16 1c8.271 0 15 6.729 15 15s-6.729 15-15 15S1 24.271 1 16 7.729 1 16 1m0-1C7.163 0 0 7.163 0 16s7.163 16 16 16 16-7.163 16-16S24.837 0 16 0z"></path><path d="M16 7.045L24.955 16 16 24.955 7.045 16 16 7.045m0-1.414L5.631 16 16 26.369 26.369 16 16 5.631z"></path></g><!----></svg>