<svg data-v-423bf9ae="" xmlns="http://www.w3.org/2000/svg" viewBox="0 0 70.21164168892187 60" class="font"><!----><!----><!----><g data-v-423bf9ae="" id="449c65d0-a647-4c98-b4e4-ab105bfe03eb" fill="black" transform="matrix(5.2910052198109945,0,0,5.2910052198109945,-2.2222215751923073,-19.365079320220282)"><path d="M0.86 7.33L0.86 7.33L0.86 7.33Q0.42 7.33 0.42 6.92L0.42 6.92L0.42 6.92Q0.42 6.73 0.62 6.22L0.62 6.22L0.62 6.22Q0.82 5.72 0.96 5.44L0.96 5.44L0.96 5.44Q1.29 4.79 1.63 4.53L1.63 4.53L1.63 4.53Q2.18 4.13 5.91 3.80L5.91 3.80L5.91 3.80Q7.53 3.66 8.26 3.66L8.26 3.66L8.26 3.66Q9.00 3.66 9.31 3.68L9.31 3.68L9.31 3.68Q9.63 3.71 9.96 3.76L9.96 3.76L9.96 3.76Q10.29 3.81 10.63 3.89L10.63 3.89L10.63 3.89Q10.96 3.96 11.27 4.08L11.27 4.08L11.27 4.08Q11.92 4.33 12.17 4.71L12.17 4.71L12.17 4.71Q12.99 5.89 12.99 6.64L12.99 6.64L12.99 6.64Q12.99 7.47 11.72 8.27L11.72 8.27L11.72 8.27Q11.33 8.52 10.90 8.76L10.90 8.76L10.90 8.76Q9.30 9.63 9.03 9.78L9.03 9.78L9.03 9.78Q9.60 10.90 11.28 12.09L11.28 12.09L11.28 12.09Q11.48 12.22 11.59 12.29L11.59 12.29L11.59 12.29Q12.11 12.59 12.80 12.20L12.80 12.20L12.80 12.20Q13.00 12.08 13.19 12.08L13.19 12.08L13.19 12.08Q13.39 12.08 13.54 12.23L13.54 12.23L13.54 12.23Q13.69 12.37 13.69 12.55L13.69 12.55L13.69 12.55Q13.69 13.36 12.61 14.30L12.61 14.30L12.61 14.30Q11.80 15.00 11.15 15.00L11.15 15.00L11.15 15.00Q10.62 15.00 8.86 13.45L8.86 13.45L8.86 13.45Q7.86 12.58 7.24 11.89L7.24 11.89L7.24 11.89Q6.62 11.20 6.38 10.86L6.38 10.86L6.38 10.86Q6.15 10.52 6.15 10.27L6.15 10.27L6.15 10.27Q6.15 10.03 6.27 9.84L6.27 9.84L6.27 9.84Q6.39 9.65 6.60 9.47L6.60 9.47L6.60 9.47Q6.92 9.19 7.51 8.88L7.51 8.88L7.51 8.88Q8.11 8.57 8.48 8.29L8.48 8.29L8.48 8.29Q8.86 8.01 9.13 7.71L9.13 7.71L9.13 7.71Q9.73 7.08 9.73 6.56L9.73 6.56L9.73 6.56Q9.73 6.23 9.53 6.00L9.53 6.00L9.53 6.00Q9.15 5.60 8.83 5.60L8.83 5.60L8.83 5.60Q8.28 5.60 7.48 5.67L7.48 5.67L6.64 7.15L6.64 7.15Q5.05 10.04 4.47 12.36L4.47 12.36L4.47 12.36Q4.24 13.26 2.71 13.26L2.71 13.26L2.71 13.26Q1.46 13.26 1.11 12.67L1.11 12.67L1.11 12.67Q0.99 12.48 1.02 12.29L1.02 12.29L1.02 12.29Q1.05 12.10 1.20 11.80L1.20 11.80L1.20 11.80Q1.35 11.49 1.61 11.03L1.61 11.03L2.22 9.99L2.97 8.77L3.81 7.45L4.68 6.14L4.68 6.14Q2.30 6.65 1.20 7.25L1.20 7.25L1.20 7.25Q1.04 7.33 0.86 7.33Z"></path></g><!----><!----></svg>